<svg width="117" height="47" viewBox="0 0 117 47" fill="none" xmlns="http://www.w3.org/2000/svg">
<path d="M57.2108 14.9793H60.672V32.2013H56.92L48.2014 20.115V32.2013H44.7402V14.9793H48.4918L57.2108 27.0655V14.9793Z" fill="white"/>
<path d="M68.1974 18.0139V22.5536H73.1644C74.0451 22.5536 74.7408 22.3462 75.2516 21.9315C75.7624 21.5167 76.0178 20.9628 76.0178 20.2697C76.0178 19.5783 75.7624 19.0336 75.2516 18.6356C74.7596 18.2206 74.0639 18.0131 73.1644 18.0131L68.1974 18.0139ZM79.4789 20.2722C79.4789 21.8113 78.9593 23.0822 77.92 24.085C76.8984 25.0877 75.3925 25.5891 73.4023 25.5891H68.1974V32.203H64.7362V14.9797H73.4023C75.3928 14.9797 76.8987 15.4811 77.92 16.4838C78.9593 17.4868 79.4789 18.7491 79.4789 20.2705V20.2722Z" fill="white"/>
<path d="M90.5729 14.6423C92.4401 14.6423 94.0516 15.1004 95.4075 16.0168C96.7813 16.9159 97.8294 18.161 98.5517 19.752H94.8527C93.7784 18.3683 92.3518 17.6766 90.5729 17.6769C88.9698 17.6769 87.6312 18.2389 86.5569 19.363C85.4989 20.4865 84.9698 21.8956 84.9698 23.5903C84.9698 25.285 85.4983 26.6943 86.5552 27.818C87.6298 28.9421 88.9684 29.5041 90.5711 29.5041C92.3675 29.5041 93.7941 28.8124 94.851 27.429H98.55C97.8265 29.0198 96.7784 30.2733 95.4058 31.1897C94.0496 32.0888 92.4381 32.5383 90.5711 32.5383C87.9818 32.5383 85.8242 31.6911 84.0982 29.9967C82.3719 28.2849 81.5087 26.1494 81.5087 23.5903C81.5087 21.0312 82.373 18.9044 84.1016 17.2099C85.8265 15.4981 87.9835 14.6423 90.5729 14.6423Z" fill="white"/>
<path d="M116.325 32.2013H111.754L104.99 25.3799V32.2013H101.529V14.9793H104.99V21.9562L111.965 14.9793H116.325L107.764 23.5903L116.325 32.2013Z" fill="white"/>
<mask id="mask0_1_405" style="mask-type:luminance" maskUnits="userSpaceOnUse" x="0" y="0" width="35" height="47">
<path d="M34.4836 0H0V47H34.4836V0Z" fill="white"/>
</mask>
<g mask="url(#mask0_1_405)">
<path d="M34.4854 28.6994L29.3683 23.4583V-0.000926401H28.6346V23.7541L33.4337 28.7041L30.7241 31.4306L30.777 29.2643C30.8372 29.2155 30.8859 29.154 30.9197 29.0844C30.9536 29.0146 30.9719 28.9383 30.9733 28.8607C30.9802 28.7852 30.9715 28.7091 30.9477 28.6371C30.9241 28.565 30.8858 28.4986 30.8353 28.442C30.7851 28.3853 30.7239 28.3396 30.6553 28.3075C30.5866 28.2758 30.5121 28.2583 30.4364 28.2563C30.3607 28.2545 30.2854 28.268 30.2151 28.2959C30.145 28.3246 30.0814 28.3671 30.0281 28.4211C29.9749 28.475 29.9333 28.5392 29.9059 28.6097C29.8784 28.6804 29.8657 28.7559 29.8686 28.8316C29.8674 28.9094 29.8825 28.9865 29.9128 29.0581C29.9426 29.13 29.987 29.1949 30.0433 29.2486L29.9455 33.254L34.4854 28.6994ZM20.6256 10.1179C20.5674 10.1691 20.5208 10.232 20.4887 10.3025C20.4583 10.3729 20.4433 10.4489 20.4445 10.5256C20.4427 10.6187 20.4648 10.7107 20.5085 10.7929C20.5517 10.8752 20.615 10.9453 20.6926 10.9967C20.77 11.0479 20.8591 11.0788 20.9517 11.0864C21.0444 11.094 21.1375 11.0781 21.2225 11.0404C21.3075 11.003 21.3815 10.9444 21.4374 10.8703C21.494 10.7965 21.531 10.7095 21.5451 10.6176C21.559 10.5255 21.5498 10.4315 21.5183 10.3439C21.4864 10.2565 21.4331 10.1784 21.3634 10.1168V-0.000926401H20.6297L20.6256 10.1179ZM23.3748 23.9847L27.8985 28.4036L28.1635 40.6963H26.5131V29.156L23.7295 26.1004V40.4774C23.6724 40.5275 23.6264 40.589 23.5944 40.6579C23.5625 40.727 23.5453 40.802 23.5437 40.878C23.543 40.971 23.5654 41.0626 23.6089 41.1447C23.6528 41.2267 23.7165 41.2963 23.7941 41.3474C23.8717 41.3983 23.9608 41.4288 24.0533 41.4359C24.1456 41.4436 24.2383 41.4277 24.3229 41.3899C24.4078 41.3521 24.4817 41.2934 24.5378 41.2193C24.5942 41.1454 24.631 41.0585 24.6449 40.9665C24.6587 40.8746 24.6493 40.7808 24.6176 40.6934C24.5856 40.606 24.5324 40.528 24.4627 40.4663V27.8445L25.7712 29.4664V41.4406H28.9048L28.6264 28.0967L24.1237 23.6773V-0.000926401H23.39L23.3748 23.9847ZM18.001 13.3325H20.7659V28.8188H16.1072V15.6578H17.9613V26.2786C17.9025 26.3289 17.8553 26.3915 17.8233 26.462C17.7913 26.5328 17.775 26.6097 17.7756 26.6874C17.7749 26.7802 17.7973 26.8716 17.8408 26.9535C17.8844 27.0353 17.9477 27.1049 18.0248 27.1562C18.1022 27.2071 18.1911 27.2379 18.2834 27.2459C18.3759 27.2535 18.4688 27.2377 18.5536 27.1999C18.6384 27.1624 18.7123 27.1041 18.7685 27.0304C18.825 26.957 18.8621 26.8705 18.8762 26.7788C18.8908 26.6871 18.882 26.5931 18.8506 26.5057C18.8193 26.4184 18.7666 26.3403 18.6974 26.2786V14.9147H15.3734V29.5543H21.5026V12.5976H18.7376V-0.000926401H18.0039L18.001 13.3325ZM8.03119 23.2126C7.97252 23.2638 7.92563 23.3272 7.89375 23.3983C7.86179 23.4694 7.84531 23.5464 7.84541 23.6243C7.84466 23.717 7.86709 23.8085 7.91064 23.8904C7.95501 23.9732 8.01974 24.0434 8.09873 24.0942C8.17622 24.1453 8.26536 24.176 8.35787 24.1833C8.45043 24.1907 8.54337 24.1747 8.62809 24.1367C8.71273 24.0988 8.78643 24.0401 8.84239 23.9661C8.8988 23.8922 8.93566 23.8053 8.94955 23.7134C8.96354 23.6215 8.95411 23.5275 8.92216 23.4403C8.89034 23.3531 8.83731 23.2752 8.76785 23.2137V-0.000926401H8.03409L8.03119 23.2126ZM5.29764 23.5416L-0.00170898 28.8508L3.2507 32.1184H9.79045V25.6759H6.96199V29.3074H4.74908V28.4845C4.80651 28.4324 4.85252 28.369 4.88418 28.2982C4.91562 28.2272 4.93189 28.1504 4.93194 28.0728C4.93179 27.9809 4.90877 27.8904 4.86496 27.8096C4.82117 27.7287 4.75768 27.6602 4.68036 27.6104C4.60343 27.5603 4.51511 27.5302 4.42354 27.5231C4.33194 27.516 4.24004 27.532 4.15625 27.5697C4.07247 27.6072 3.9994 27.665 3.94369 27.738C3.8879 27.8111 3.85109 27.897 3.83654 27.9878C3.82254 28.0788 3.83134 28.1718 3.86216 28.2586C3.89277 28.3453 3.94463 28.423 4.013 28.4845V30.0423H7.6975V26.4114H9.05844V31.3934H3.5576L1.02497 28.8584L6.03315 23.8467V-0.000926401H5.29939L5.29764 23.5416ZM26.0606 21.4818C25.9779 21.5566 25.9196 21.6547 25.8935 21.7631C25.8674 21.8718 25.8747 21.9859 25.9145 22.0904C25.9545 22.1945 26.0249 22.2841 26.1165 22.3478C26.2085 22.4107 26.3173 22.4443 26.4287 22.4444C26.5403 22.4445 26.6493 22.4108 26.7414 22.3478C26.833 22.2841 26.9034 22.1945 26.9435 22.0904C26.9836 21.9866 26.9917 21.8732 26.9668 21.7648C26.9406 21.6564 26.8824 21.5584 26.7996 21.4836V-0.000926401H26.063L26.0606 21.4818ZM12.9101 9.02428C12.8517 9.07585 12.8049 9.13915 12.7726 9.21004C12.7407 9.28108 12.7242 9.3581 12.7243 9.43599C12.7247 9.52798 12.7479 9.61843 12.7919 9.69921C12.8354 9.78006 12.8987 9.84857 12.9759 9.89838C13.0528 9.94856 13.1411 9.97859 13.2327 9.98573C13.3243 9.9929 13.4162 9.97688 13.5 9.93914C13.5839 9.90166 13.6572 9.84381 13.7131 9.77084C13.7685 9.69752 13.8051 9.61175 13.8197 9.52102C13.8339 9.43007 13.8253 9.33703 13.7947 9.25023C13.7638 9.1636 13.712 9.08597 13.6438 9.02428V-0.00209045H12.9101V9.02428ZM15.328 11.7188H12.9048V32.0945H21.5818V40.9205L16.5492 45.9637L12.6766 42.1866H15.1806L16.5841 43.5883L19.9693 40.1373V33.594H14.0294C13.9682 33.5254 13.8906 33.4733 13.804 33.4426C13.7172 33.412 13.6241 33.4034 13.5332 33.4176C13.4425 33.4322 13.3568 33.4693 13.2839 33.5253C13.2111 33.5815 13.1535 33.655 13.1162 33.7391C13.079 33.8234 13.0632 33.9156 13.0702 34.0075C13.0777 34.0993 13.1079 34.1877 13.1582 34.2649C13.2086 34.3417 13.2772 34.4049 13.3579 34.4489C13.439 34.4926 13.5296 34.5154 13.6217 34.5153C13.6989 34.5152 13.7751 34.4985 13.8453 34.4664C13.9158 34.4345 13.9785 34.3878 14.0294 34.3296H19.2501V39.8455L16.5299 42.6088L15.4439 41.4511H10.8853L16.5695 46.9991L22.3202 41.2257V31.359H13.6433V12.4566H16.0664V-0.000926401H15.3274L15.328 11.7188ZM10.5603 -0.000926401H11.2941V35.8955H17.5479V39.163H10.2027V41.4406H4.25525V33.6604H7.50824V38.4892C7.57653 38.5508 7.62837 38.6285 7.65906 38.7152C7.68969 38.802 7.69829 38.895 7.6841 38.986C7.66888 39.0769 7.63126 39.1625 7.57462 39.2352C7.5185 39.3082 7.44504 39.3661 7.36091 39.4035C7.27697 39.4414 7.18477 39.4572 7.09302 39.4495C7.00146 39.4419 6.91322 39.4117 6.83621 39.3616C6.75943 39.311 6.69639 39.2422 6.65276 39.1613C6.60907 39.08 6.58626 38.9892 6.58638 38.8969C6.58649 38.8195 6.60317 38.7431 6.6353 38.6727C6.66722 38.6023 6.71388 38.5395 6.77215 38.4887V34.3959H5.00007V40.7057H9.48414V38.4281H16.813V36.631H10.5621L10.5603 -0.000926401Z" fill="white"/>
</g>
</svg>
